<mxfile host="app.diagrams.net" modified="2020-09-23T21:01:20.871Z" agent="5.0 (Macintosh; Intel Mac OS X 10_15_6) AppleWebKit/537.36 (KHTML, like Gecko) Chrome/85.0.4183.102 Safari/537.36" etag="Z2--wlwyY2u8q2_5xgYJ" version="13.7.5" type="github">
  <diagram id="C5RBs43oDa-KdzZeNtuy" name="Page-1">
    <mxGraphModel dx="1666" dy="771" grid="1" gridSize="10" guides="1" tooltips="1" connect="1" arrows="1" fold="1" page="1" pageScale="1" pageWidth="827" pageHeight="1169" math="0" shadow="0">
      <root>
        <mxCell id="WIyWlLk6GJQsqaUBKTNV-0" />
        <mxCell id="WIyWlLk6GJQsqaUBKTNV-1" parent="WIyWlLk6GJQsqaUBKTNV-0" />
        <mxCell id="mHLz-aS2O-KmqXBxaff4-0" value="Patron Places Order&amp;nbsp;" style="rounded=1;whiteSpace=wrap;html=1;fontSize=12;glass=0;strokeWidth=1;shadow=0;" vertex="1" parent="WIyWlLk6GJQsqaUBKTNV-1">
          <mxGeometry x="610" y="60" width="170" height="50" as="geometry" />
        </mxCell>
        <mxCell id="mHLz-aS2O-KmqXBxaff4-2" value="" style="endArrow=classic;html=1;exitX=0.5;exitY=1;exitDx=0;exitDy=0;" edge="1" parent="WIyWlLk6GJQsqaUBKTNV-1" source="mHLz-aS2O-KmqXBxaff4-0">
          <mxGeometry width="50" height="50" relative="1" as="geometry">
            <mxPoint x="700" y="180" as="sourcePoint" />
            <mxPoint x="695" y="160" as="targetPoint" />
          </mxGeometry>
        </mxCell>
        <mxCell id="mHLz-aS2O-KmqXBxaff4-4" value="Backend receives the post-request" style="rounded=1;whiteSpace=wrap;html=1;fontSize=12;glass=0;strokeWidth=1;shadow=0;" vertex="1" parent="WIyWlLk6GJQsqaUBKTNV-1">
          <mxGeometry x="610" y="160" width="170" height="50" as="geometry" />
        </mxCell>
        <mxCell id="mHLz-aS2O-KmqXBxaff4-5" value="" style="endArrow=classic;html=1;exitX=0.5;exitY=1;exitDx=0;exitDy=0;" edge="1" parent="WIyWlLk6GJQsqaUBKTNV-1">
          <mxGeometry width="50" height="50" relative="1" as="geometry">
            <mxPoint x="690" y="210" as="sourcePoint" />
            <mxPoint x="690" y="250" as="targetPoint" />
          </mxGeometry>
        </mxCell>
        <mxCell id="mHLz-aS2O-KmqXBxaff4-14" style="edgeStyle=orthogonalEdgeStyle;rounded=0;orthogonalLoop=1;jettySize=auto;html=1;exitX=0.5;exitY=1;exitDx=0;exitDy=0;" edge="1" parent="WIyWlLk6GJQsqaUBKTNV-1" source="mHLz-aS2O-KmqXBxaff4-6" target="mHLz-aS2O-KmqXBxaff4-9">
          <mxGeometry relative="1" as="geometry" />
        </mxCell>
        <mxCell id="mHLz-aS2O-KmqXBxaff4-6" value="Goes through the order middleware chain for Patron" style="rounded=1;whiteSpace=wrap;html=1;fontSize=12;glass=0;strokeWidth=1;shadow=0;" vertex="1" parent="WIyWlLk6GJQsqaUBKTNV-1">
          <mxGeometry x="610" y="250" width="170" height="50" as="geometry" />
        </mxCell>
        <mxCell id="mHLz-aS2O-KmqXBxaff4-15" style="edgeStyle=orthogonalEdgeStyle;rounded=0;orthogonalLoop=1;jettySize=auto;html=1;" edge="1" parent="WIyWlLk6GJQsqaUBKTNV-1" source="mHLz-aS2O-KmqXBxaff4-9" target="mHLz-aS2O-KmqXBxaff4-11">
          <mxGeometry relative="1" as="geometry" />
        </mxCell>
        <mxCell id="mHLz-aS2O-KmqXBxaff4-9" value="Hits the createCronAction middleware" style="rounded=1;whiteSpace=wrap;html=1;fontSize=12;glass=0;strokeWidth=1;shadow=0;" vertex="1" parent="WIyWlLk6GJQsqaUBKTNV-1">
          <mxGeometry x="610" y="360" width="170" height="50" as="geometry" />
        </mxCell>
        <mxCell id="mHLz-aS2O-KmqXBxaff4-10" value="Do not create a cronAction for order" style="rounded=1;whiteSpace=wrap;html=1;fontSize=12;glass=0;strokeWidth=1;shadow=0;" vertex="1" parent="WIyWlLk6GJQsqaUBKTNV-1">
          <mxGeometry x="860" y="475" width="170" height="50" as="geometry" />
        </mxCell>
        <mxCell id="mHLz-aS2O-KmqXBxaff4-16" style="edgeStyle=orthogonalEdgeStyle;rounded=0;orthogonalLoop=1;jettySize=auto;html=1;entryX=0;entryY=0.5;entryDx=0;entryDy=0;" edge="1" parent="WIyWlLk6GJQsqaUBKTNV-1" source="mHLz-aS2O-KmqXBxaff4-11" target="mHLz-aS2O-KmqXBxaff4-10">
          <mxGeometry relative="1" as="geometry" />
        </mxCell>
        <mxCell id="mHLz-aS2O-KmqXBxaff4-17" style="edgeStyle=orthogonalEdgeStyle;rounded=0;orthogonalLoop=1;jettySize=auto;html=1;entryX=0.5;entryY=0;entryDx=0;entryDy=0;" edge="1" parent="WIyWlLk6GJQsqaUBKTNV-1" source="mHLz-aS2O-KmqXBxaff4-11" target="mHLz-aS2O-KmqXBxaff4-12">
          <mxGeometry relative="1" as="geometry" />
        </mxCell>
        <mxCell id="mHLz-aS2O-KmqXBxaff4-11" value="Does RestaurantGroup have GenericWebhook service" style="rhombus;whiteSpace=wrap;html=1;shadow=0;fontFamily=Helvetica;fontSize=12;align=center;strokeWidth=1;spacing=6;spacingTop=-4;" vertex="1" parent="WIyWlLk6GJQsqaUBKTNV-1">
          <mxGeometry x="590" y="440" width="210" height="120" as="geometry" />
        </mxCell>
        <mxCell id="mHLz-aS2O-KmqXBxaff4-22" style="edgeStyle=orthogonalEdgeStyle;rounded=0;orthogonalLoop=1;jettySize=auto;html=1;entryX=0.5;entryY=0;entryDx=0;entryDy=0;" edge="1" parent="WIyWlLk6GJQsqaUBKTNV-1" source="mHLz-aS2O-KmqXBxaff4-12" target="mHLz-aS2O-KmqXBxaff4-21">
          <mxGeometry relative="1" as="geometry" />
        </mxCell>
        <mxCell id="mHLz-aS2O-KmqXBxaff4-12" value="Create a CronAction that has action : send_to_generic-webhook&amp;nbsp;" style="rounded=1;whiteSpace=wrap;html=1;fontSize=12;glass=0;strokeWidth=1;shadow=0;" vertex="1" parent="WIyWlLk6GJQsqaUBKTNV-1">
          <mxGeometry x="610" y="620" width="170" height="50" as="geometry" />
        </mxCell>
        <mxCell id="mHLz-aS2O-KmqXBxaff4-18" value="No" style="text;html=1;align=center;verticalAlign=middle;resizable=0;points=[];autosize=1;" vertex="1" parent="WIyWlLk6GJQsqaUBKTNV-1">
          <mxGeometry x="815" y="480" width="30" height="20" as="geometry" />
        </mxCell>
        <mxCell id="mHLz-aS2O-KmqXBxaff4-19" value="Yes" style="text;html=1;align=center;verticalAlign=middle;resizable=0;points=[];autosize=1;" vertex="1" parent="WIyWlLk6GJQsqaUBKTNV-1">
          <mxGeometry x="690" y="580" width="40" height="20" as="geometry" />
        </mxCell>
        <mxCell id="mHLz-aS2O-KmqXBxaff4-33" style="edgeStyle=orthogonalEdgeStyle;rounded=0;orthogonalLoop=1;jettySize=auto;html=1;" edge="1" parent="WIyWlLk6GJQsqaUBKTNV-1" source="mHLz-aS2O-KmqXBxaff4-21" target="mHLz-aS2O-KmqXBxaff4-23">
          <mxGeometry relative="1" as="geometry" />
        </mxCell>
        <mxCell id="mHLz-aS2O-KmqXBxaff4-21" value="processPostOrderAction" style="rounded=1;whiteSpace=wrap;html=1;fontSize=12;glass=0;strokeWidth=1;shadow=0;" vertex="1" parent="WIyWlLk6GJQsqaUBKTNV-1">
          <mxGeometry x="610" y="730" width="170" height="50" as="geometry" />
        </mxCell>
        <mxCell id="mHLz-aS2O-KmqXBxaff4-34" style="edgeStyle=orthogonalEdgeStyle;rounded=0;orthogonalLoop=1;jettySize=auto;html=1;entryX=0.5;entryY=0;entryDx=0;entryDy=0;" edge="1" parent="WIyWlLk6GJQsqaUBKTNV-1" source="mHLz-aS2O-KmqXBxaff4-23" target="mHLz-aS2O-KmqXBxaff4-24">
          <mxGeometry relative="1" as="geometry" />
        </mxCell>
        <mxCell id="mHLz-aS2O-KmqXBxaff4-49" style="edgeStyle=orthogonalEdgeStyle;rounded=0;orthogonalLoop=1;jettySize=auto;html=1;" edge="1" parent="WIyWlLk6GJQsqaUBKTNV-1" source="mHLz-aS2O-KmqXBxaff4-23">
          <mxGeometry relative="1" as="geometry">
            <mxPoint x="920" y="905" as="targetPoint" />
          </mxGeometry>
        </mxCell>
        <mxCell id="mHLz-aS2O-KmqXBxaff4-23" value="Is there a Cron Action with action: send_to_generic_webhook" style="rhombus;whiteSpace=wrap;html=1;shadow=0;fontFamily=Helvetica;fontSize=12;align=center;strokeWidth=1;spacing=6;spacingTop=-4;" vertex="1" parent="WIyWlLk6GJQsqaUBKTNV-1">
          <mxGeometry x="570" y="840" width="250" height="130" as="geometry" />
        </mxCell>
        <mxCell id="mHLz-aS2O-KmqXBxaff4-35" style="edgeStyle=orthogonalEdgeStyle;rounded=0;orthogonalLoop=1;jettySize=auto;html=1;" edge="1" parent="WIyWlLk6GJQsqaUBKTNV-1" source="mHLz-aS2O-KmqXBxaff4-24" target="mHLz-aS2O-KmqXBxaff4-25">
          <mxGeometry relative="1" as="geometry" />
        </mxCell>
        <mxCell id="mHLz-aS2O-KmqXBxaff4-24" value="Process that Cron Action with an Order Manager" style="rounded=1;whiteSpace=wrap;html=1;fontSize=12;glass=0;strokeWidth=1;shadow=0;" vertex="1" parent="WIyWlLk6GJQsqaUBKTNV-1">
          <mxGeometry x="610" y="1050" width="170" height="50" as="geometry" />
        </mxCell>
        <mxCell id="mHLz-aS2O-KmqXBxaff4-36" style="edgeStyle=orthogonalEdgeStyle;rounded=0;orthogonalLoop=1;jettySize=auto;html=1;" edge="1" parent="WIyWlLk6GJQsqaUBKTNV-1" source="mHLz-aS2O-KmqXBxaff4-25" target="mHLz-aS2O-KmqXBxaff4-26">
          <mxGeometry relative="1" as="geometry" />
        </mxCell>
        <mxCell id="mHLz-aS2O-KmqXBxaff4-25" value="postToWebhook in Order Manager" style="rounded=1;whiteSpace=wrap;html=1;fontSize=12;glass=0;strokeWidth=1;shadow=0;" vertex="1" parent="WIyWlLk6GJQsqaUBKTNV-1">
          <mxGeometry x="610" y="1190" width="170" height="50" as="geometry" />
        </mxCell>
        <mxCell id="mHLz-aS2O-KmqXBxaff4-37" style="edgeStyle=orthogonalEdgeStyle;rounded=0;orthogonalLoop=1;jettySize=auto;html=1;" edge="1" parent="WIyWlLk6GJQsqaUBKTNV-1" source="mHLz-aS2O-KmqXBxaff4-26" target="mHLz-aS2O-KmqXBxaff4-27">
          <mxGeometry relative="1" as="geometry" />
        </mxCell>
        <mxCell id="mHLz-aS2O-KmqXBxaff4-44" style="edgeStyle=orthogonalEdgeStyle;rounded=0;orthogonalLoop=1;jettySize=auto;html=1;entryX=0;entryY=0.5;entryDx=0;entryDy=0;" edge="1" parent="WIyWlLk6GJQsqaUBKTNV-1" source="mHLz-aS2O-KmqXBxaff4-26" target="mHLz-aS2O-KmqXBxaff4-43">
          <mxGeometry relative="1" as="geometry" />
        </mxCell>
        <mxCell id="mHLz-aS2O-KmqXBxaff4-26" value="If the webhook service for the RestaurantGroup is &quot;generic&quot;" style="rhombus;whiteSpace=wrap;html=1;shadow=0;fontFamily=Helvetica;fontSize=12;align=center;strokeWidth=1;spacing=6;spacingTop=-4;" vertex="1" parent="WIyWlLk6GJQsqaUBKTNV-1">
          <mxGeometry x="570" y="1330" width="250" height="130" as="geometry" />
        </mxCell>
        <mxCell id="mHLz-aS2O-KmqXBxaff4-38" style="edgeStyle=orthogonalEdgeStyle;rounded=0;orthogonalLoop=1;jettySize=auto;html=1;entryX=0.5;entryY=0;entryDx=0;entryDy=0;" edge="1" parent="WIyWlLk6GJQsqaUBKTNV-1" source="mHLz-aS2O-KmqXBxaff4-27" target="mHLz-aS2O-KmqXBxaff4-28">
          <mxGeometry relative="1" as="geometry" />
        </mxCell>
        <mxCell id="mHLz-aS2O-KmqXBxaff4-27" value="sendToGenericWebhook" style="rounded=1;whiteSpace=wrap;html=1;fontSize=12;glass=0;strokeWidth=1;shadow=0;" vertex="1" parent="WIyWlLk6GJQsqaUBKTNV-1">
          <mxGeometry x="610" y="1530" width="170" height="50" as="geometry" />
        </mxCell>
        <mxCell id="mHLz-aS2O-KmqXBxaff4-39" style="edgeStyle=orthogonalEdgeStyle;rounded=0;orthogonalLoop=1;jettySize=auto;html=1;entryX=0.395;entryY=0.011;entryDx=0;entryDy=0;entryPerimeter=0;" edge="1" parent="WIyWlLk6GJQsqaUBKTNV-1" source="mHLz-aS2O-KmqXBxaff4-28" target="mHLz-aS2O-KmqXBxaff4-29">
          <mxGeometry relative="1" as="geometry" />
        </mxCell>
        <mxCell id="mHLz-aS2O-KmqXBxaff4-28" value="map the order into proper payload syntax&lt;span style=&quot;color: rgba(0 , 0 , 0 , 0) ; font-family: monospace ; font-size: 0px&quot;&gt;%3CmxGraphModel%3E%3Croot%3E%3CmxCell%20id%3D%220%22%2F%3E%3CmxCell%20id%3D%221%22%20parent%3D%220%22%2F%3E%3CmxCell%20id%3D%222%22%20value%3D%22sendToGenericWebhook%22%20style%3D%22rounded%3D1%3BwhiteSpace%3Dwrap%3Bhtml%3D1%3BfontSize%3D12%3Bglass%3D0%3BstrokeWidth%3D1%3Bshadow%3D0%3B%22%20vertex%3D%221%22%20parent%3D%221%22%3E%3CmxGeometry%20x%3D%22610%22%20y%3D%221530%22%20width%3D%22170%22%20height%3D%2250%22%20as%3D%22geometry%22%2F%3E%3C%2FmxCell%3E%3C%2Froot%3E%3C%2FmxGraphModel%3E&lt;/span&gt;" style="rounded=1;whiteSpace=wrap;html=1;fontSize=12;glass=0;strokeWidth=1;shadow=0;" vertex="1" parent="WIyWlLk6GJQsqaUBKTNV-1">
          <mxGeometry x="610" y="1680" width="170" height="50" as="geometry" />
        </mxCell>
        <mxCell id="mHLz-aS2O-KmqXBxaff4-40" style="edgeStyle=orthogonalEdgeStyle;rounded=0;orthogonalLoop=1;jettySize=auto;html=1;entryX=0.5;entryY=0;entryDx=0;entryDy=0;" edge="1" parent="WIyWlLk6GJQsqaUBKTNV-1" source="mHLz-aS2O-KmqXBxaff4-29" target="mHLz-aS2O-KmqXBxaff4-30">
          <mxGeometry relative="1" as="geometry" />
        </mxCell>
        <mxCell id="mHLz-aS2O-KmqXBxaff4-29" value="create a genericWebhook API class (Passing in the endpoints) and send to endpoints using class" style="rounded=1;whiteSpace=wrap;html=1;fontSize=12;glass=0;strokeWidth=1;shadow=0;" vertex="1" parent="WIyWlLk6GJQsqaUBKTNV-1">
          <mxGeometry x="610" y="1840" width="210" height="90" as="geometry" />
        </mxCell>
        <mxCell id="mHLz-aS2O-KmqXBxaff4-41" style="edgeStyle=orthogonalEdgeStyle;rounded=0;orthogonalLoop=1;jettySize=auto;html=1;entryX=0.5;entryY=0;entryDx=0;entryDy=0;" edge="1" parent="WIyWlLk6GJQsqaUBKTNV-1" source="mHLz-aS2O-KmqXBxaff4-30" target="mHLz-aS2O-KmqXBxaff4-31">
          <mxGeometry relative="1" as="geometry" />
        </mxCell>
        <mxCell id="mHLz-aS2O-KmqXBxaff4-30" value="Send to the endPoints in genericWebhook API" style="rounded=1;whiteSpace=wrap;html=1;fontSize=12;glass=0;strokeWidth=1;shadow=0;" vertex="1" parent="WIyWlLk6GJQsqaUBKTNV-1">
          <mxGeometry x="625" y="2000" width="170" height="50" as="geometry" />
        </mxCell>
        <mxCell id="mHLz-aS2O-KmqXBxaff4-42" style="edgeStyle=orthogonalEdgeStyle;rounded=0;orthogonalLoop=1;jettySize=auto;html=1;entryX=0.547;entryY=0.02;entryDx=0;entryDy=0;entryPerimeter=0;" edge="1" parent="WIyWlLk6GJQsqaUBKTNV-1" source="mHLz-aS2O-KmqXBxaff4-31" target="mHLz-aS2O-KmqXBxaff4-32">
          <mxGeometry relative="1" as="geometry" />
        </mxCell>
        <mxCell id="mHLz-aS2O-KmqXBxaff4-31" value="Is there an error posting to the endpoints" style="rhombus;whiteSpace=wrap;html=1;shadow=0;fontFamily=Helvetica;fontSize=12;align=center;strokeWidth=1;spacing=6;spacingTop=-4;" vertex="1" parent="WIyWlLk6GJQsqaUBKTNV-1">
          <mxGeometry x="585" y="2140" width="250" height="130" as="geometry" />
        </mxCell>
        <mxCell id="mHLz-aS2O-KmqXBxaff4-32" value="console.error(error)" style="rounded=1;whiteSpace=wrap;html=1;fontSize=12;glass=0;strokeWidth=1;shadow=0;" vertex="1" parent="WIyWlLk6GJQsqaUBKTNV-1">
          <mxGeometry x="620" y="2350" width="170" height="50" as="geometry" />
        </mxCell>
        <mxCell id="mHLz-aS2O-KmqXBxaff4-43" value="End the call" style="rounded=1;whiteSpace=wrap;html=1;fontSize=12;glass=0;strokeWidth=1;shadow=0;" vertex="1" parent="WIyWlLk6GJQsqaUBKTNV-1">
          <mxGeometry x="940" y="1370" width="170" height="50" as="geometry" />
        </mxCell>
        <mxCell id="mHLz-aS2O-KmqXBxaff4-45" value="No" style="text;html=1;align=center;verticalAlign=middle;resizable=0;points=[];autosize=1;" vertex="1" parent="WIyWlLk6GJQsqaUBKTNV-1">
          <mxGeometry x="860" y="1380" width="30" height="20" as="geometry" />
        </mxCell>
        <mxCell id="mHLz-aS2O-KmqXBxaff4-46" value="Yes" style="text;html=1;align=center;verticalAlign=middle;resizable=0;points=[];autosize=1;" vertex="1" parent="WIyWlLk6GJQsqaUBKTNV-1">
          <mxGeometry x="695" y="1480" width="40" height="20" as="geometry" />
        </mxCell>
        <mxCell id="mHLz-aS2O-KmqXBxaff4-47" value="yes" style="text;html=1;align=center;verticalAlign=middle;resizable=0;points=[];autosize=1;" vertex="1" parent="WIyWlLk6GJQsqaUBKTNV-1">
          <mxGeometry x="705" y="2300" width="30" height="20" as="geometry" />
        </mxCell>
        <mxCell id="mHLz-aS2O-KmqXBxaff4-50" value="Process the cron actions" style="rounded=1;whiteSpace=wrap;html=1;fontSize=12;glass=0;strokeWidth=1;shadow=0;" vertex="1" parent="WIyWlLk6GJQsqaUBKTNV-1">
          <mxGeometry x="920" y="880" width="170" height="50" as="geometry" />
        </mxCell>
        <mxCell id="mHLz-aS2O-KmqXBxaff4-51" value="No" style="text;html=1;align=center;verticalAlign=middle;resizable=0;points=[];autosize=1;" vertex="1" parent="WIyWlLk6GJQsqaUBKTNV-1">
          <mxGeometry x="845" y="880" width="30" height="20" as="geometry" />
        </mxCell>
        <mxCell id="mHLz-aS2O-KmqXBxaff4-52" value="Yes" style="text;html=1;align=center;verticalAlign=middle;resizable=0;points=[];autosize=1;" vertex="1" parent="WIyWlLk6GJQsqaUBKTNV-1">
          <mxGeometry x="695" y="1000" width="40" height="20" as="geometry" />
        </mxCell>
      </root>
    </mxGraphModel>
  </diagram>
</mxfile>
